<?xml version="1.0" standalone="no"?>
<!DOCTYPE svg PUBLIC "-//W3C//DTD SVG 20010904//EN"
 "http://www.w3.org/TR/2001/REC-SVG-20010904/DTD/svg10.dtd">
<svg version="1.0" xmlns="http://www.w3.org/2000/svg"
 width="548.000000pt" height="486.000000pt" viewBox="0 0 548.000000 486.000000"
 preserveAspectRatio="xMidYMid meet">

<g transform="translate(0.000000,486.000000) scale(0.100000,-0.100000)"
fill="#000000" stroke="none">
<path d="M3088 4614 c-40 -38 -83 -78 -95 -87 l-21 -19 -23 71 c-13 39 -26 68
-31 63 -4 -4 -34 -68 -66 -142 l-59 -135 -43 -3 c-23 -2 -60 4 -81 12 -85 34
-207 5 -260 -62 -13 -17 -43 -45 -66 -61 -58 -42 -69 -70 -77 -186 -5 -81 -4
-106 9 -130 12 -22 12 -26 2 -15 -8 8 -24 41 -37 73 -16 41 -31 62 -52 73 -61
32 -137 -18 -123 -81 4 -16 11 -61 16 -99 10 -79 41 -151 92 -219 21 -26 37
-56 37 -68 0 -38 29 -76 75 -98 48 -22 58 -49 34 -92 -9 -18 -17 -19 -82 -13
-194 16 -386 -86 -475 -254 -51 -96 -65 -175 -59 -337 6 -174 36 -298 106
-440 l49 -100 -6 -243 -5 -243 -32 -13 c-47 -20 -106 -76 -126 -121 -26 -56
-24 -146 5 -241 12 -44 26 -86 30 -94 6 -13 -9 -18 -92 -28 -247 -31 -357 -83
-271 -127 121 -63 573 -105 1137 -105 483 0 886 30 1069 79 37 10 106 22 153
26 253 20 412 102 478 245 31 66 40 161 21 228 -37 134 -224 204 -367 137 -44
-20 -53 -29 -50 -47 3 -22 8 -23 108 -28 154 -8 206 -41 204 -134 -1 -60 -27
-116 -76 -163 -100 -97 -316 -115 -588 -50 l-95 22 -3 48 c-6 98 76 340 167
492 72 120 90 159 112 242 42 167 7 375 -76 453 -19 18 -21 25 -12 49 7 20 6
39 -4 72 -12 36 -19 45 -41 47 -16 2 -28 9 -28 15 1 17 38 94 39 80 1 -18 60
-82 90 -97 22 -12 36 -11 96 4 38 9 71 23 73 29 2 7 -5 39 -17 70 -20 54 -20
61 -6 101 28 79 20 105 -58 187 -46 48 -46 24 7 196 l25 78 -32 -6 c-97 -21
-181 -83 -212 -157 -13 -33 -20 -38 -48 -38 -40 0 -105 -30 -134 -61 -37 -40
-44 -78 -54 -259 -10 -194 -23 -255 -70 -321 -17 -24 -100 -111 -184 -194
l-154 -150 -11 35 c-21 64 -24 238 -5 399 18 162 12 271 -20 361 l-14 40 27 0
c16 0 52 12 81 26 94 47 151 168 151 319 0 38 -5 87 -9 109 -12 49 -9 56 39
84 55 31 82 86 80 165 0 34 2 92 6 129 4 43 2 79 -7 105 -7 21 -11 57 -10 80
2 42 -16 91 -46 125 -14 16 -7 25 86 114 56 53 100 98 99 99 -2 2 -39 -3 -82
-11 -44 -7 -82 -11 -85 -9 -2 3 10 62 28 131 18 70 30 129 27 131 -3 3 -38
-25 -78 -63z m2 -150 c-11 -48 -19 -88 -18 -89 2 -2 34 3 73 10 l69 13 -76
-74 -77 -75 -30 15 c-16 9 -42 16 -56 16 -14 0 -45 15 -68 32 -23 18 -44 34
-46 35 -1 1 12 38 30 82 32 80 49 94 49 43 0 -56 14 -53 90 23 41 40 76 70 78
65 2 -5 -6 -48 -18 -96z m-433 -106 c15 -6 57 -12 93 -13 70 -3 130 -26 164
-64 11 -12 31 -21 48 -21 41 0 88 -23 122 -58 24 -26 30 -43 36 -104 5 -40 13
-96 18 -124 7 -34 8 -63 1 -90 -6 -21 -10 -68 -10 -104 2 -77 -18 -116 -76
-153 l-38 -24 0 -155 c0 -152 0 -155 -30 -213 -55 -107 -145 -151 -254 -125
-102 24 -162 112 -146 212 11 65 51 142 95 182 49 44 40 46 -23 6 -49 -31
-107 -109 -107 -143 0 -14 -5 -17 -17 -12 -10 3 -37 11 -60 18 -40 10 -43 13
-43 47 0 50 -22 76 -80 95 -50 17 -110 58 -110 76 0 5 14 2 31 -6 16 -9 53
-18 82 -21 l52 -5 -64 22 c-111 36 -212 156 -241 285 -14 63 -9 75 32 67 18
-3 41 -10 51 -15 13 -7 24 -5 37 7 16 15 18 14 24 -10 4 -14 26 -45 49 -70 51
-53 95 -60 134 -23 21 20 33 22 101 19 64 -2 81 -6 102 -25 63 -58 149 -83
230 -67 43 8 42 9 -30 10 -88 2 -147 24 -181 70 -20 28 -28 31 -75 31 -35 0
-59 6 -76 19 -30 24 -44 27 -90 18 -46 -10 -91 11 -112 52 -20 37 -13 198 9
241 8 16 35 41 60 56 25 14 45 30 45 34 0 13 56 62 87 76 36 16 124 17 160 2z
m-497 -318 c12 -8 9 -10 -11 -10 -15 0 -32 -7 -39 -15 -17 -21 -24 -12 -10 14
11 22 36 27 60 11z m206 -685 c34 -8 86 -25 116 -38 52 -23 56 -28 67 -73 16
-63 79 -127 141 -144 25 -7 50 -14 56 -15 6 -2 20 -34 30 -72 21 -76 23 -180
9 -488 l-8 -180 32 -110 c54 -188 72 -352 51 -465 -8 -44 -7 -56 5 -71 49 -53
80 -223 68 -373 -6 -88 -6 -88 -39 -102 -63 -26 -267 -45 -449 -42 -99 2 -178
7 -184 13 -6 7 4 38 30 90 21 44 42 94 45 112 5 28 11 33 55 43 52 13 112 7
168 -16 41 -17 48 -13 27 18 -31 43 -38 93 -26 181 6 45 13 89 16 99 3 11 -18
33 -73 75 -94 70 -209 177 -274 255 l-47 57 -6 -37 c-15 -96 -37 -325 -33
-336 3 -7 23 -18 46 -25 54 -16 107 -70 122 -123 26 -98 -36 -309 -110 -371
-54 -45 -207 -47 -273 -4 -21 14 -46 47 -68 92 -33 65 -35 76 -35 165 0 84 3
101 28 148 30 58 91 108 142 118 l32 6 8 96 c3 54 6 175 6 269 l-1 173 -57 87
c-144 221 -222 513 -184 693 33 161 139 269 293 299 69 14 208 12 274 -4z
m1154 -621 c26 -66 2 -123 -39 -97 -13 8 -23 6 -42 -8 -46 -36 -84 -14 -61 35
8 18 7 27 -5 39 -20 20 -10 47 18 47 12 0 38 -10 57 -22 20 -12 32 -16 28 -9
-8 12 10 41 25 41 5 0 14 -12 19 -26z m-165 -59 c0 -15 -11 -22 -60 -32 -33
-7 -63 -12 -67 -13 -4 0 -2 13 3 29 12 33 26 40 84 38 33 -2 40 -6 40 -22z
m-332 -781 c71 -50 111 -162 93 -258 -11 -57 -63 -109 -132 -130 -19 -6 -22 0
-34 51 -12 58 -51 147 -69 157 -5 3 -5 24 0 48 4 24 8 72 9 107 l0 64 46 -6
c28 -3 62 -16 87 -33z m-675 -107 c54 -27 62 -35 57 -54 -3 -12 -1 -40 4 -62
l8 -39 -39 2 c-32 2 -43 8 -60 34 -21 34 -75 72 -103 72 -15 0 -17 6 -11 52 4
28 10 56 12 60 3 5 20 -1 37 -12 18 -12 60 -35 95 -53z"/>
<path d="M2480 3770 c0 -5 17 -10 39 -10 23 0 48 -8 64 -20 26 -21 67 -27 67
-10 0 5 -7 7 -15 4 -8 -3 -29 6 -46 20 -21 18 -42 26 -70 26 -21 0 -39 -4 -39
-10z"/>
<path d="M3492 828 c-46 -22 -37 -101 13 -114 36 -9 75 19 75 54 0 52 -43 81
-88 60z"/>
<path d="M4535 815 c-30 -29 -31 -45 -4 -79 25 -32 61 -34 89 -4 27 30 25 62
-6 87 -34 27 -50 26 -79 -4z"/>
<path d="M2830 800 l0 -30 65 0 65 0 0 -265 0 -265 -75 0 -75 0 0 -35 0 -35
190 0 190 0 0 35 0 35 -70 0 -70 0 0 295 0 295 -110 0 -110 0 0 -30z"/>
<path d="M1338 778 c-27 -9 -28 -13 -28 -74 l0 -64 -65 0 -65 0 0 -35 0 -35
65 0 65 0 0 -147 c0 -121 3 -154 18 -183 26 -52 76 -73 174 -72 43 1 83 4 89
7 5 4 9 21 9 40 l0 33 -37 -10 c-59 -16 -123 -5 -150 27 -22 24 -23 35 -23
166 l0 139 105 0 105 0 0 35 0 35 -105 0 -105 0 0 75 c0 80 -2 82 -52 63z"/>
<path d="M2430 775 c-63 -20 -114 -66 -147 -132 -23 -48 -28 -73 -31 -155 -7
-159 35 -251 135 -298 57 -27 161 -32 236 -11 46 13 47 15 47 52 0 22 -2 39
-4 39 -2 0 -21 -7 -42 -16 -56 -23 -169 -16 -211 14 -54 38 -78 103 -77 207 0
140 41 207 142 234 45 12 132 3 172 -19 18 -10 20 -8 20 29 0 40 -1 40 -52 56
-63 18 -128 18 -188 0z"/>
<path d="M160 475 l0 -305 45 0 45 0 0 109 0 108 80 6 c148 10 232 85 232 206
-1 55 -12 82 -50 124 -38 40 -107 57 -239 57 l-113 0 0 -305z m260 220 c42
-21 63 -68 57 -122 -8 -77 -62 -113 -167 -113 l-60 0 0 125 0 125 70 0 c44 0
82 -6 100 -15z"/>
<path d="M825 639 c-104 -30 -167 -160 -145 -296 20 -120 92 -176 230 -177 41
0 92 3 113 7 34 7 37 11 37 41 l0 34 -37 -9 c-58 -13 -150 -11 -188 5 -39 17
-75 68 -75 109 l0 27 165 0 165 0 0 41 c0 110 -48 189 -132 214 -57 17 -88 18
-133 4z m133 -78 c23 -12 58 -93 47 -110 -4 -7 -51 -11 -126 -11 -113 0 -119
1 -119 20 0 48 55 115 100 122 28 4 66 -4 98 -21z"/>
<path d="M4044 644 c-12 -3 -40 -21 -62 -40 l-41 -35 -7 36 c-6 32 -9 35 -40
35 l-34 0 0 -235 0 -235 40 0 40 0 0 158 0 158 43 42 c57 56 101 65 143 29
l29 -25 3 -181 4 -181 40 0 40 0 -4 188 c-4 203 -11 234 -63 268 -26 17 -93
26 -131 18z"/>
<path d="M5103 640 c-59 -12 -97 -34 -132 -77 -39 -47 -51 -89 -51 -173 1
-144 82 -222 229 -221 36 0 80 4 96 9 26 7 30 14 33 46 3 34 1 38 -15 31 -50
-21 -114 -27 -157 -15 -51 14 -69 30 -91 83 -32 77 -14 171 44 220 43 36 93
44 164 25 l57 -15 0 38 c0 36 -2 38 -37 44 -75 12 -99 13 -140 5z"/>
<path d="M3350 605 l0 -35 70 0 70 0 0 -165 0 -165 -75 0 -75 0 0 -35 0 -35
185 0 185 0 0 35 0 35 -70 0 -70 0 0 200 0 200 -110 0 -110 0 0 -35z"/>
<path d="M4410 605 l0 -35 70 0 70 0 0 -165 0 -165 -80 0 -80 0 0 -35 0 -35
190 0 190 0 0 35 0 35 -70 0 -70 0 0 200 0 200 -110 0 -110 0 0 -35z"/>
</g>
</svg>
