<?xml version="1.0" encoding="UTF-8" standalone="no"?>
<svg
   version="1.0"
   width="548.000000pt"
   height="486.000000pt"
   viewBox="0 0 548.000000 486.000000"
   preserveAspectRatio="xMidYMid meet"
   id="svg30"
   sodipodi:docname="logo.svg"
   inkscape:version="1.1 (c68e22c387, 2021-05-23)"
   xmlns:inkscape="http://www.inkscape.org/namespaces/inkscape"
   xmlns:sodipodi="http://sodipodi.sourceforge.net/DTD/sodipodi-0.dtd"
   xmlns="http://www.w3.org/2000/svg"
   xmlns:svg="http://www.w3.org/2000/svg">
  <defs
     id="defs34" />
  <sodipodi:namedview
     id="namedview32"
     pagecolor="#ffffff"
     bordercolor="#666666"
     borderopacity="1.0"
     inkscape:pageshadow="2"
     inkscape:pageopacity="0.0"
     inkscape:pagecheckerboard="0"
     inkscape:document-units="pt"
     showgrid="false"
     inkscape:zoom="6.5813623"
     inkscape:cx="326.07231"
     inkscape:cy="189.24653"
     inkscape:window-width="1465"
     inkscape:window-height="981"
     inkscape:window-x="271"
     inkscape:window-y="0"
     inkscape:window-maximized="0"
     inkscape:current-layer="svg30" />
  <rect
     style="fill:#ffffff;fill-rule:evenodd;stroke:#000000;stroke-width:0.797171"
     id="rect1503"
     width="532.91791"
     height="470.82111"
     x="8.2676048"
     y="9.1007462"
     rx="10.469337"
     ry="10.790996" />
  <g
     transform="matrix(0.1,0,0,-0.1,1.4231396,485.4252)"
     fill="#000000"
     stroke="none"
     id="g28"
     style="fill:#77bc1f;fill-opacity:1">
    <path
       d="m 3088,4614 c -40,-38 -83,-78 -95,-87 l -21,-19 -23,71 c -13,39 -26,68 -31,63 -4,-4 -34,-68 -66,-142 l -59,-135 -43,-3 c -23,-2 -60,4 -81,12 -85,34 -207,5 -260,-62 -13,-17 -43,-45 -66,-61 -58,-42 -69,-70 -77,-186 -5,-81 -4,-106 9,-130 12,-22 12,-26 2,-15 -8,8 -24,41 -37,73 -16,41 -31,62 -52,73 -61,32 -137,-18 -123,-81 4,-16 11,-61 16,-99 10,-79 41,-151 92,-219 21,-26 37,-56 37,-68 0,-38 29,-76 75,-98 48,-22 58,-49 34,-92 -9,-18 -17,-19 -82,-13 -194,16 -386,-86 -475,-254 -51,-96 -65,-175 -59,-337 6,-174 36,-298 106,-440 l 49,-100 -6,-243 -5,-243 -32,-13 c -47,-20 -106,-76 -126,-121 -26,-56 -24,-146 5,-241 12,-44 26,-86 30,-94 6,-13 -9,-18 -92,-28 -247,-31 -357,-83 -271,-127 121,-63 573,-105 1137,-105 483,0 886,30 1069,79 37,10 106,22 153,26 253,20 412,102 478,245 31,66 40,161 21,228 -37,134 -224,204 -367,137 -44,-20 -53,-29 -50,-47 3,-22 8,-23 108,-28 154,-8 206,-41 204,-134 -1,-60 -27,-116 -76,-163 -100,-97 -316,-115 -588,-50 l -95,22 -3,48 c -6,98 76,340 167,492 72,120 90,159 112,242 42,167 7,375 -76,453 -19,18 -21,25 -12,49 7,20 6,39 -4,72 -12,36 -19,45 -41,47 -16,2 -28,9 -28,15 1,17 38,94 39,80 1,-18 60,-82 90,-97 22,-12 36,-11 96,4 38,9 71,23 73,29 2,7 -5,39 -17,70 -20,54 -20,61 -6,101 28,79 20,105 -58,187 -46,48 -46,24 7,196 l 25,78 -32,-6 c -97,-21 -181,-83 -212,-157 -13,-33 -20,-38 -48,-38 -40,0 -105,-30 -134,-61 -37,-40 -44,-78 -54,-259 -10,-194 -23,-255 -70,-321 -17,-24 -100,-111 -184,-194 l -154,-150 -11,35 c -21,64 -24,238 -5,399 18,162 12,271 -20,361 l -14,40 h 27 c 16,0 52,12 81,26 94,47 151,168 151,319 0,38 -5,87 -9,109 -12,49 -9,56 39,84 55,31 82,86 80,165 0,34 2,92 6,129 4,43 2,79 -7,105 -7,21 -11,57 -10,80 2,42 -16,91 -46,125 -14,16 -7,25 86,114 56,53 100,98 99,99 -2,2 -39,-3 -82,-11 -44,-7 -82,-11 -85,-9 -2,3 10,62 28,131 18,70 30,129 27,131 -3,3 -38,-25 -78,-63 z m 2,-150 c -11,-48 -19,-88 -18,-89 2,-2 34,3 73,10 l 69,13 -76,-74 -77,-75 -30,15 c -16,9 -42,16 -56,16 -14,0 -45,15 -68,32 -23,18 -44,34 -46,35 -1,1 12,38 30,82 32,80 49,94 49,43 0,-56 14,-53 90,23 41,40 76,70 78,65 2,-5 -6,-48 -18,-96 z m -433,-106 c 15,-6 57,-12 93,-13 70,-3 130,-26 164,-64 11,-12 31,-21 48,-21 41,0 88,-23 122,-58 24,-26 30,-43 36,-104 5,-40 13,-96 18,-124 7,-34 8,-63 1,-90 -6,-21 -10,-68 -10,-104 2,-77 -18,-116 -76,-153 l -38,-24 v -155 c 0,-152 0,-155 -30,-213 -55,-107 -145,-151 -254,-125 -102,24 -162,112 -146,212 11,65 51,142 95,182 49,44 40,46 -23,6 -49,-31 -107,-109 -107,-143 0,-14 -5,-17 -17,-12 -10,3 -37,11 -60,18 -40,10 -43,13 -43,47 0,50 -22,76 -80,95 -50,17 -110,58 -110,76 0,5 14,2 31,-6 16,-9 53,-18 82,-21 l 52,-5 -64,22 c -111,36 -212,156 -241,285 -14,63 -9,75 32,67 18,-3 41,-10 51,-15 13,-7 24,-5 37,7 16,15 18,14 24,-10 4,-14 26,-45 49,-70 51,-53 95,-60 134,-23 21,20 33,22 101,19 64,-2 81,-6 102,-25 63,-58 149,-83 230,-67 43,8 42,9 -30,10 -88,2 -147,24 -181,70 -20,28 -28,31 -75,31 -35,0 -59,6 -76,19 -30,24 -44,27 -90,18 -46,-10 -91,11 -112,52 -20,37 -13,198 9,241 8,16 35,41 60,56 25,14 45,30 45,34 0,13 56,62 87,76 36,16 124,17 160,2 z m -497,-318 c 12,-8 9,-10 -11,-10 -15,0 -32,-7 -39,-15 -17,-21 -24,-12 -10,14 11,22 36,27 60,11 z m 206,-685 c 34,-8 86,-25 116,-38 52,-23 56,-28 67,-73 16,-63 79,-127 141,-144 25,-7 50,-14 56,-15 6,-2 20,-34 30,-72 21,-76 23,-180 9,-488 l -8,-180 32,-110 c 54,-188 72,-352 51,-465 -8,-44 -7,-56 5,-71 49,-53 80,-223 68,-373 -6,-88 -6,-88 -39,-102 -63,-26 -267,-45 -449,-42 -99,2 -178,7 -184,13 -6,7 4,38 30,90 21,44 42,94 45,112 5,28 11,33 55,43 52,13 112,7 168,-16 41,-17 48,-13 27,18 -31,43 -38,93 -26,181 6,45 13,89 16,99 3,11 -18,33 -73,75 -94,70 -209,177 -274,255 l -47,57 -6,-37 c -15,-96 -37,-325 -33,-336 3,-7 23,-18 46,-25 54,-16 107,-70 122,-123 26,-98 -36,-309 -110,-371 -54,-45 -207,-47 -273,-4 -21,14 -46,47 -68,92 -33,65 -35,76 -35,165 0,84 3,101 28,148 30,58 91,108 142,118 l 32,6 8,96 c 3,54 6,175 6,269 l -1,173 -57,87 c -144,221 -222,513 -184,693 33,161 139,269 293,299 69,14 208,12 274,-4 z m 1154,-621 c 26,-66 2,-123 -39,-97 -13,8 -23,6 -42,-8 -46,-36 -84,-14 -61,35 8,18 7,27 -5,39 -20,20 -10,47 18,47 12,0 38,-10 57,-22 20,-12 32,-16 28,-9 -8,12 10,41 25,41 5,0 14,-12 19,-26 z m -165,-59 c 0,-15 -11,-22 -60,-32 -33,-7 -63,-12 -67,-13 -4,0 -2,13 3,29 12,33 26,40 84,38 33,-2 40,-6 40,-22 z m -332,-781 c 71,-50 111,-162 93,-258 -11,-57 -63,-109 -132,-130 -19,-6 -22,0 -34,51 -12,58 -51,147 -69,157 -5,3 -5,24 0,48 4,24 8,72 9,107 v 64 l 46,-6 c 28,-3 62,-16 87,-33 z m -675,-107 c 54,-27 62,-35 57,-54 -3,-12 -1,-40 4,-62 l 8,-39 -39,2 c -32,2 -43,8 -60,34 -21,34 -75,72 -103,72 -15,0 -17,6 -11,52 4,28 10,56 12,60 3,5 20,-1 37,-12 18,-12 60,-35 95,-53 z"
       id="path2"
       style="fill:#77bc1f;fill-opacity:1" />
    <path
       d="m 2480,3770 c 0,-5 17,-10 39,-10 23,0 48,-8 64,-20 26,-21 67,-27 67,-10 0,5 -7,7 -15,4 -8,-3 -29,6 -46,20 -21,18 -42,26 -70,26 -21,0 -39,-4 -39,-10 z"
       id="path4"
       style="fill:#77bc1f;fill-opacity:1" />
    <path
       d="m 3492,828 c -46,-22 -37,-101 13,-114 36,-9 75,19 75,54 0,52 -43,81 -88,60 z"
       id="path6"
       style="fill:#77bc1f;fill-opacity:1" />
    <path
       d="m 4535,815 c -30,-29 -31,-45 -4,-79 25,-32 61,-34 89,-4 27,30 25,62 -6,87 -34,27 -50,26 -79,-4 z"
       id="path8"
       style="fill:#77bc1f;fill-opacity:1" />
    <path
       d="m 2830,800 v -30 h 65 65 V 505 240 h -75 -75 v -35 -35 h 190 190 v 35 35 h -70 -70 v 295 295 h -110 -110 z"
       id="path10"
       style="fill:#77bc1f;fill-opacity:1" />
    <path
       d="m 1338,778 c -27,-9 -28,-13 -28,-74 v -64 h -65 -65 v -35 -35 h 65 65 V 423 c 0,-121 3,-154 18,-183 26,-52 76,-73 174,-72 43,1 83,4 89,7 5,4 9,21 9,40 v 33 l -37,-10 c -59,-16 -123,-5 -150,27 -22,24 -23,35 -23,166 v 139 h 105 105 v 35 35 h -105 -105 v 75 c 0,80 -2,82 -52,63 z"
       id="path12"
       style="fill:#77bc1f;fill-opacity:1" />
    <path
       d="m 2430,775 c -63,-20 -114,-66 -147,-132 -23,-48 -28,-73 -31,-155 -7,-159 35,-251 135,-298 57,-27 161,-32 236,-11 46,13 47,15 47,52 0,22 -2,39 -4,39 -2,0 -21,-7 -42,-16 -56,-23 -169,-16 -211,14 -54,38 -78,103 -77,207 0,140 41,207 142,234 45,12 132,3 172,-19 18,-10 20,-8 20,29 0,40 -1,40 -52,56 -63,18 -128,18 -188,0 z"
       id="path14"
       style="fill:#77bc1f;fill-opacity:1" />
    <path
       d="M 160,475 V 170 h 45 45 v 109 108 l 80,6 c 148,10 232,85 232,206 -1,55 -12,82 -50,124 -38,40 -107,57 -239,57 H 160 Z m 260,220 c 42,-21 63,-68 57,-122 -8,-77 -62,-113 -167,-113 h -60 v 125 125 h 70 c 44,0 82,-6 100,-15 z"
       id="path16"
       style="fill:#77bc1f;fill-opacity:1" />
    <path
       d="M 825,639 C 721,609 658,479 680,343 700,223 772,167 910,166 c 41,0 92,3 113,7 34,7 37,11 37,41 v 34 l -37,-9 c -58,-13 -150,-11 -188,5 -39,17 -75,68 -75,109 v 27 h 165 165 v 41 c 0,110 -48,189 -132,214 -57,17 -88,18 -133,4 z m 133,-78 c 23,-12 58,-93 47,-110 -4,-7 -51,-11 -126,-11 -113,0 -119,1 -119,20 0,48 55,115 100,122 28,4 66,-4 98,-21 z"
       id="path18"
       style="fill:#77bc1f;fill-opacity:1" />
    <path
       d="m 4044,644 c -12,-3 -40,-21 -62,-40 l -41,-35 -7,36 c -6,32 -9,35 -40,35 h -34 V 405 170 h 40 40 v 158 158 l 43,42 c 57,56 101,65 143,29 l 29,-25 3,-181 4,-181 h 40 40 l -4,188 c -4,203 -11,234 -63,268 -26,17 -93,26 -131,18 z"
       id="path20"
       style="fill:#77bc1f;fill-opacity:1" />
    <path
       d="m 5103,640 c -59,-12 -97,-34 -132,-77 -39,-47 -51,-89 -51,-173 1,-144 82,-222 229,-221 36,0 80,4 96,9 26,7 30,14 33,46 3,34 1,38 -15,31 -50,-21 -114,-27 -157,-15 -51,14 -69,30 -91,83 -32,77 -14,171 44,220 43,36 93,44 164,25 l 57,-15 v 38 c 0,36 -2,38 -37,44 -75,12 -99,13 -140,5 z"
       id="path22"
       style="fill:#77bc1f;fill-opacity:1" />
    <path
       d="m 3350,605 v -35 h 70 70 V 405 240 h -75 -75 v -35 -35 h 185 185 v 35 35 h -70 -70 v 200 200 h -110 -110 z"
       id="path24"
       style="fill:#77bc1f;fill-opacity:1" />
    <path
       d="m 4410,605 v -35 h 70 70 V 405 240 h -80 -80 v -35 -35 h 190 190 v 35 35 h -70 -70 v 200 200 h -110 -110 z"
       id="path26"
       style="fill:#77bc1f;fill-opacity:1" />
  </g>
  <path
     style="fill:#f3bc1f;fill-opacity:1;fill-rule:evenodd;stroke:#000000;stroke-width:1.14018"
     d="m 405.3356,78.070772 c -2.19485,-0.836298 -5.28375,-1.792794 -6.86422,-2.125548 -4.13354,-0.870284 -13.6591,-7.447353 -13.6591,-9.431139 0,-0.925151 1.64603,-5.622817 3.65784,-10.43926 l 3.65783,-8.757167 1.18795,4.193993 c 0.65337,2.306696 1.57276,4.230758 2.04309,4.275692 0.47032,0.04494 1.41811,0.0817 2.10618,0.0817 0.68808,0 4.79342,-3.419874 9.12299,-7.599719 4.32957,-4.179845 8.14021,-7.331445 8.4681,-7.003555 0.32789,0.32789 -0.44241,5.05034 -1.71178,10.494334 -2.72331,11.679526 -2.84384,13.68003 -0.77643,12.886687 0.84234,-0.323235 4.5622,-0.945498 8.26634,-1.382803 l 6.73481,-0.795102 -8.52285,8.672017 c -4.68756,4.769609 -8.79223,8.622155 -9.12147,8.561214 -0.32925,-0.06094 -2.39442,-0.795046 -4.58928,-1.631344 z"
     id="path2106"
     transform="scale(0.75)" />
  <path
     style="fill:#ff5555;fill-opacity:1;fill-rule:evenodd;stroke:#000000;stroke-width:1.14018"
     d="m 453.03908,297.87321 c -0.10134,-0.47033 -0.29016,-3.16401 -0.41958,-5.98597 -0.12943,-2.82196 -0.43132,-6.15675 -0.67087,-7.41065 -0.62002,-3.24538 3.44,-3.53775 9.0913,-0.65467 l 4.5711,2.332 0.36222,-2.45991 c 0.90757,-6.16343 5.6293,-1.80389 5.83309,5.38566 0.14832,5.23224 -2.0047,7.59995 -5.4736,6.01942 -2.16464,-0.98628 -3.43466,-0.75472 -6.60406,1.20408 -4.05875,2.50844 -6.37047,3.051 -6.6896,1.57004 z"
     id="path2219"
     transform="scale(0.75)" />
  <path
     style="fill:#ffccaa;fill-opacity:1;fill-rule:evenodd;stroke:#000000;stroke-width:1.14018"
     d="m 265.91524,487.51986 c -6.97618,-1.8762 -9.92142,-4.71968 -15.28702,-14.75881 -4.31397,-8.0715 -4.34836,-8.23956 -4.34836,-21.24797 0,-11.56452 0.3173,-13.71771 2.68833,-18.24296 4.83481,-9.22753 12.11432,-15.39794 20.11536,-17.0506 3.22782,-0.66672 3.46176,-1.08963 4.15194,-7.50551 0.40227,-3.73942 0.78708,-20.08355 0.85514,-36.32027 l 0.12375,-29.5213 -6.15189,-9.81506 c -8.68026,-13.84897 -15.02826,-26.99428 -19.52283,-40.42752 -15.37929,-45.96515 -5.74128,-79.38338 26.24481,-90.99964 5.74307,-2.08569 9.31171,-2.48821 22.2336,-2.50782 16.59113,-0.0252 24.9712,1.55829 36.10672,6.82256 5.16763,2.44298 6.11532,3.44126 7.71009,8.12164 3.79342,11.13308 10.27963,17.37909 21.6604,20.85824 5.31521,1.62488 5.91448,2.18256 7.96397,7.4112 1.86531,4.75873 2.28487,9.26522 2.64945,28.45779 0.23824,12.54203 -0.005,32.02251 -0.53917,43.28995 -0.97051,20.4475 -0.96621,20.50791 2.26953,31.92517 7.09948,25.05039 8.11732,31.69794 8.21095,53.62573 0.0811,18.98055 0.27995,20.88576 2.64599,25.3448 4.67637,8.81301 6.39496,18.84792 6.46379,37.74234 0.071,19.4938 0.0452,19.56061 -8.45246,21.84563 -17.1973,4.62435 -79.84815,6.25999 -79.84815,2.08461 0,-0.62376 1.86561,-5.3219 4.1458,-10.44031 2.28019,-5.1184 4.76854,-11.35852 5.52966,-13.86692 1.10058,-3.62714 2.17747,-4.83932 5.26072,-5.92162 5.80582,-2.03799 13.64949,-1.75789 21.73319,0.77608 3.97525,1.24611 7.356,2.27227 7.51278,2.28037 0.99056,0.0511 -0.0453,-3.85369 -1.86917,-7.04627 -3.33418,-5.83622 -3.76549,-11.18778 -1.90467,-23.63288 0.94338,-6.30926 1.41589,-12.25146 1.05003,-13.20487 -0.36586,-0.95342 -5.35418,-5.38277 -11.08516,-9.84302 -5.73097,-4.46024 -17.44374,-15.21845 -26.02837,-23.90715 -11.89363,-12.03779 -15.74656,-15.32852 -16.18884,-13.8266 -0.94319,3.20291 -4.05038,32.08655 -4.38236,40.73729 l -0.30629,7.98129 5.92876,2.85046 c 6.71517,3.22856 12.23264,8.08217 14.90554,13.11212 5.34571,10.05974 -1.95832,40.2382 -12.22313,50.50302 -5.56202,5.56202 -18.48396,7.42002 -30.02243,4.31681 z"
     id="path2541"
     transform="scale(0.75)" />
  <path
     style="fill:#ffccaa;fill-opacity:1;fill-rule:evenodd;stroke:#000000;stroke-width:1.14018"
     d="m 363.42114,231.07565 c -5.59239,-2.0282 -11.39224,-7.13762 -14.07798,-12.4021 -5.02241,-9.84474 -0.74484,-25.97696 9.90768,-37.36537 2.96067,-3.1652 5.07588,-6.06206 4.70046,-6.43748 -0.85123,-0.85124 -8.25672,3.5157 -12.64269,7.45525 -4.22562,3.79554 -9.82334,12.47191 -9.82334,15.22604 0,1.49098 -0.60121,1.96095 -1.99532,1.55975 -13.47534,-3.87804 -12.15127,-2.86396 -13.38324,-10.25001 -0.85461,-5.12369 -4.23848,-8.65668 -10.42838,-10.88792 -5.32883,-1.92086 -13.4087,-6.87683 -12.57336,-7.71217 0.33078,-0.33078 2.30332,-0.0727 4.38341,0.57351 2.0801,0.64621 6.60395,1.46745 10.05301,1.82499 6.89927,0.71519 7.38938,1.09818 -6.66682,-5.20975 -13.26839,-5.95439 -25.27388,-21.39084 -28.40179,-36.51854 -1.57041,-7.5951 -0.78229,-8.32368 7.09662,-6.56045 4.89537,1.09553 7.04289,1.13879 8.58933,0.17302 1.72677,-1.07838 2.16553,-0.87519 2.69889,1.24988 0.8716,3.47275 8.21481,11.85728 12.18085,13.9082 4.65831,2.40891 7.77967,2.09017 12.66147,-1.29292 3.898,-2.70131 5.10308,-2.93599 13.17353,-2.56541 8.23078,0.37793 9.41253,0.76149 16.09377,5.22346 8.48506,5.66662 13.14321,7.14762 22.43384,7.13254 10.30318,-0.0167 11.30397,-1.77923 1.52629,-2.68797 -11.93965,-1.10968 -16.82825,-2.8986 -21.96892,-8.03927 -3.9591,-3.9591 -5.42385,-4.64181 -11.53838,-5.37793 -3.85199,-0.46373 -8.90789,-1.9667 -11.23534,-3.33993 -3.45526,-2.03866 -5.29896,-2.37038 -10.04825,-1.80789 -7.19928,0.85264 -12.76929,-1.49066 -15.33451,-6.45124 -1.41702,-2.74023 -1.68946,-6.02859 -1.28611,-15.52379 0.60731,-14.296756 2.07996,-17.804399 9.66638,-23.023995 2.93635,-2.020258 6.81968,-5.359815 8.62963,-7.421239 7.52028,-8.565118 16.59039,-10.984817 29.71141,-7.926323 4.27185,0.995764 9.69437,1.810479 12.05004,1.810479 6.55368,0 15.0201,2.939026 21.27304,7.384702 3.10761,2.209429 6.82276,4.017143 8.25588,4.017143 3.6162,0 10.52527,3.036929 13.74202,6.040388 4.32173,4.035185 5.47326,7.401665 7.51481,21.969385 1.59761,11.39986 1.73424,16.34261 0.79729,28.84265 -1.30052,17.35054 -2.47438,20.23442 -10.73743,26.37893 l -5.3637,3.98853 -0.0114,19.95534 c -0.0103,18.77582 -0.17637,20.31028 -2.80662,25.95993 -6.28894,13.50834 -14.66861,19.71516 -26.41124,19.56283 -3.67775,-0.0477 -8.36004,-0.69357 -10.40509,-1.43525 z m -8.25366,-81.14138 c 0,-0.97617 -1.02561,-1.71028 -2.3894,-1.71028 -1.31417,0 -3.97366,-1.12809 -5.90997,-2.50686 -2.3127,-1.64679 -5.26815,-2.52695 -8.61431,-2.56542 -6.92504,-0.0796 -7.42329,2.30306 -0.69267,3.31238 2.91287,0.43681 6.91149,1.77919 8.88582,2.98306 4.32827,2.63922 8.72053,2.88456 8.72053,0.48712 z"
     id="path2580"
     transform="scale(0.75)" />
  <path
     style="fill:#d37b5f;fill-opacity:1;fill-rule:evenodd;stroke:#000000;stroke-width:1.14018"
     d="m 266.80318,505.05974 c -51.83924,-3.14551 -86.08393,-9.56017 -86.08393,-16.12509 0,-4.16046 13.7764,-8.52556 37.35141,-11.8349 6.71152,-0.94212 12.66425,-2.17444 13.22829,-2.73849 0.60725,-0.60725 -0.30718,-5.59215 -2.24199,-12.2219 -4.04089,-13.84642 -4.53998,-28.25922 -1.19216,-34.42783 2.9097,-5.36135 11.00463,-12.96441 16.3875,-15.39174 l 4.51781,-2.03726 0.70762,-32.51306 0.70762,-32.51305 -5.20079,-11.00705 c -6.02818,-12.75818 -10.07879,-23.90634 -12.49204,-34.38084 -2.40299,-10.42994 -3.44217,-43.57346 -1.65157,-52.6749 3.82864,-19.4606 17.22043,-36.86925 34.92261,-45.39763 9.86302,-4.75171 19.79765,-6.78818 33.20972,-6.80759 12.90714,-0.0187 14.00737,-0.64518 14.00737,-7.97622 0,-2.83567 -0.73834,-3.93873 -3.67536,-5.49083 -5.97192,-3.15594 -10.85532,-8.59655 -12.20067,-13.5928 -0.69186,-2.56941 -2.98192,-7.17789 -5.08901,-10.24105 -4.57811,-6.6554 -8.68771,-14.50728 -8.6591,-16.54425 0.0114,-0.80886 1.50196,1.21604 3.31244,4.49978 5.10224,9.25412 9.8167,14.57448 17.52004,19.77168 6.69067,4.51399 6.44187,5.08542 -1.18495,2.72157 -1.89829,-0.58836 -2.56542,-0.33599 -2.56542,0.97049 0,2.30324 4.82497,5.67243 14.05221,9.81241 7.96195,3.57229 9.56948,5.48717 10.83636,12.90829 0.78813,4.61673 0.97252,4.78045 7.62773,6.77256 8.38348,2.50944 9.67053,2.5501 9.67053,0.30554 0,-0.97179 0.81315,-3.33934 1.80699,-5.26122 2.0484,-3.96117 10.52298,-13.4952 11.99557,-13.4952 0.53356,0 -0.99269,3.03682 -3.39166,6.74849 -5.49752,8.50575 -7.40399,15.26587 -6.77144,24.01078 0.66214,9.15395 4.89326,15.36776 13.47037,19.78256 5.74286,2.95595 7.07019,3.18556 15.95552,2.76004 8.67194,-0.41529 9.33171,-0.31007 6.27102,1.0001 -1.88131,0.80532 -4.89137,1.48736 -6.68904,1.51564 -2.58054,0.0406 -3.13665,0.47141 -2.64212,2.04675 5.3043,16.89685 6.26557,28.50329 4.15631,50.18358 -1.95243,20.06841 -1.95817,43.32134 -0.0129,52.4664 0.8376,3.93774 1.88189,7.3814 2.32065,7.65258 1.14949,0.71041 44.73793,-43.6721 47.67232,-48.54079 3.9743,-6.59412 5.78118,-16.16495 7.56287,-40.05996 0.92192,-12.3642 2.3019,-24.56866 3.06661,-27.12104 0.82149,-2.74189 3.14971,-6.23013 5.69022,-8.52533 3.98152,-3.59711 13.42947,-7.4339 18.30564,-7.4339 1.30913,0 3.06293,-1.99061 4.8353,-5.48823 3.4673,-6.84238 10.57869,-13.36542 18.20817,-16.70172 6.75158,-2.95241 12.1145,-4.41738 12.1145,-3.30927 0,0.42265 -1.79579,6.3234 -3.99064,13.11276 -2.19486,6.78937 -3.99065,13.59515 -3.99065,15.12396 0,1.72802 2.09123,5.07911 5.52745,8.85751 8.83407,9.71375 9.63055,12.53456 6.47541,22.93301 -1.51482,4.99248 -1.46684,6.05237 0.56773,12.54204 1.22232,3.89879 2.22901,7.94681 2.2371,8.99561 0.0154,2.002 -3.20552,3.37211 -12.91706,5.49455 -4.89105,1.06893 -5.96773,0.93014 -9.44207,-1.21711 -2.15683,-1.33301 -5.64186,-4.6767 -7.74451,-7.43045 -4.32039,-5.65825 -5.14212,-5.36432 -8.05074,2.87962 -1.62874,4.61634 -1.60326,4.88606 0.51397,5.43972 1.89006,0.49427 1.9901,0.82014 0.66007,2.15018 -0.86219,0.86219 -1.75196,2.12066 -1.97728,2.79659 -0.26986,0.80957 -1.56922,0.62435 -3.8074,-0.5427 -3.57331,-1.86323 -9.17497,-2.38196 -10.04938,-0.9306 -0.28337,0.47033 -0.24158,4.61875 0.0929,9.21873 0.70232,9.65979 1.69222,10.56473 8.29805,7.58592 4.14634,-1.86973 13.65604,-3.03042 13.65408,-1.66652 -4.8e-4,0.33043 2.00716,3.2732 4.4614,6.5395 2.45424,3.26628 5.66101,9.40947 7.12615,13.65153 2.31914,6.71461 2.66167,9.85247 2.64676,24.24549 -0.0156,15.08408 -0.29143,17.31216 -3.14752,25.42886 -1.7217,4.89291 -6.70362,15.20719 -11.07094,22.9206 -14.71321,25.98608 -22.75735,48.32689 -23.67233,65.74467 l -0.57297,10.90744 14.67971,3.08785 c 31.15346,6.55309 55.16127,6.00523 70.10701,-1.59984 6.57499,-3.34565 14.42996,-12.92199 16.53296,-20.15607 1.84701,-6.35349 1.54488,-13.2069 -0.77316,-17.5382 -2.25936,-4.22164 -9.68563,-6.75198 -23.64497,-8.0565 -15.23133,-1.42339 -18.63507,-3.03157 -13.94381,-6.58809 10.6031,-8.03837 30.89962,-7.33616 42.45868,1.46897 7.01225,5.34159 10.27703,11.87522 10.91701,21.84759 1.9397,30.22446 -21.09862,49.44146 -64.88496,54.12266 -6.03695,0.64541 -16.8117,2.43115 -23.94387,3.96833 -14.69293,3.16671 -33.21816,5.68216 -55.7245,7.56656 -19.02268,1.59272 -131.57735,2.34116 -153.35482,1.01973 z m 21.91934,-16.50297 c 8.67305,-2.57562 13.44415,-8.56314 18.4104,-23.10428 8.06865,-23.62495 4.18896,-38.8094 -11.85533,-46.39957 l -6.24081,-2.95237 v -6.85695 c 0,-6.75937 3.20452,-38.84765 3.95443,-39.59758 0.2121,-0.21208 6.46401,5.7095 13.89314,13.15909 7.42912,7.44959 18.83418,17.82706 25.34458,23.06104 l 11.83707,9.51634 -0.97013,10.36904 c -1.42728,15.25509 -1.01698,21.73413 1.70738,26.96093 1.31062,2.51447 2.38294,4.7587 2.38294,4.98718 0,0.22848 -3.12421,-0.55694 -6.94269,-1.74539 -7.90808,-2.46127 -13.7943,-2.71405 -20.99258,-0.90149 -4.73482,1.19224 -5.12053,1.60216 -7.24167,7.69624 -1.23226,3.54032 -3.90194,10.1037 -5.93263,14.5853 -2.03068,4.4816 -3.39447,8.9241 -3.03063,9.87223 0.98895,2.57716 14.97292,3.5235 39.57946,2.67845 22.3524,-0.76763 33.30413,-1.98515 43.02716,-4.78337 7.51962,-2.1641 7.73485,-2.85395 7.63361,-24.46706 -0.0817,-17.44514 -1.68048,-26.54955 -6.36743,-36.26036 -1.30215,-2.69792 -2.06494,-5.20791 -1.69509,-5.57777 1.02244,-1.02243 7.08708,12.48546 9.33641,20.79511 2.20911,8.16114 3.41658,8.82924 9.97698,5.52037 9.68769,-4.88621 13.3385,-10.99502 13.34619,-22.33186 0.0128,-18.84967 -9.27342,-30.59578 -26.37293,-33.35915 l -4.13368,-0.66801 -1.108,12.282 -1.10799,12.28201 -0.18093,-12.54203 c -0.23004,-15.94816 -2.62418,-31.82442 -7.30742,-48.45784 l -3.6918,-13.11212 v -45.60738 c 0,-43.32977 -0.11754,-45.91535 -2.35377,-51.77422 -2.09109,-5.47865 -2.85452,-6.31654 -6.8411,-7.5084 -11.96121,-3.576 -17.53303,-8.33098 -21.56187,-18.4009 -3.1034,-7.75682 -6.49592,-10.56869 -16.90656,-14.01294 -15.33006,-5.0718 -37.20417,-5.77318 -51.1552,-1.64027 -16.98055,5.03038 -29.06116,18.60803 -33.58115,37.74255 -3.55891,15.06596 0.0997,41.95158 8.63146,63.42905 4.6548,11.71776 8.81395,19.7468 16.61357,32.07159 l 6.49398,10.26166 -0.53313,33.63544 c -0.29322,18.4995 -0.87725,34.43111 -1.29784,35.4036 -0.4206,0.97248 -2.92966,2.3493 -5.57569,3.05959 -6.36548,1.70873 -13.23541,7.76231 -17.31461,15.25713 -2.91949,5.36407 -3.36536,7.49506 -3.78338,18.08197 -0.403,10.20656 -0.11277,12.95702 1.94079,18.39233 3.31178,8.76554 8.7759,16.69151 13.05492,18.93681 7.36493,3.86454 19.78616,4.73422 28.91157,2.02426 z m 34.88887,-66.97354 c -0.73884,-9.56639 -0.23379,-8.99636 -15.05126,-16.98814 -12.02912,-6.48789 -12.11624,-6.46691 -13.32527,3.20986 -0.87408,6.99585 -0.48205,7.85234 4.00492,8.74974 2.04162,0.40832 5.91914,3.21181 9.66564,6.98837 5.50291,5.54707 6.80353,6.30651 10.80036,6.30651 h 4.54405 z M 446.16211,294.0453 c 2.9237,-0.95962 3.69191,-1.78906 3.42055,-3.69314 -0.30464,-2.13766 -1.19158,-2.49962 -6.85076,-2.79586 -5.31792,-0.27838 -6.9258,0.0847 -8.83643,1.99532 -1.28459,1.28459 -2.33562,3.55208 -2.33562,5.03887 0,2.60594 0.19499,2.66707 5.41587,1.69783 2.97873,-0.553 7.11261,-1.56235 9.18639,-2.24302 z"
     id="path2865"
     transform="scale(0.75)" />
  <path
     style="fill:#d37b5f;fill-opacity:1;fill-rule:evenodd;stroke:#000000;stroke-width:1.14018"
     d="m 314.69093,138.9177 c -4.07849,-2.24576 -9.84123,-8.26924 -12.09502,-12.64226 -2.32436,-4.50995 -3.2201,-5.03718 -5.19785,-3.05943 -0.86157,0.86157 -3.25376,0.79544 -8.20285,-0.22678 -6.52072,-1.34683 -7.09863,-1.29489 -8.66707,0.77905 -1.65191,2.18431 -1.68111,2.18117 -1.71676,-0.18417 -0.0199,-1.32345 -0.3457,-4.66389 -0.72391,-7.42321 -0.60661,-4.42569 -0.31954,-5.38503 2.43585,-8.14043 3.72397,-3.72397 10.32602,-4.25314 14.0754,-1.12817 1.31671,1.09743 4.18891,5.71518 6.38266,10.26166 4.3299,8.97357 7.02322,11.14447 4.40764,3.55268 -1.20237,-3.48991 -1.41769,-7.26404 -0.82936,-14.53735 1.26767,-15.671804 2.40915,-16.772793 1.91016,-1.84241 -0.50069,14.98129 0.14473,17.40268 5.74516,21.5536 2.54383,1.88543 4.64183,2.33691 9.93324,2.13759 5.11331,-0.19261 8.14181,0.4147 12.73761,2.55428 3.31614,1.54383 7.82514,2.81389 10.01999,2.82236 4.19461,0.0162 11.40185,3.66264 11.40185,5.76868 0,0.67903 -1.63498,0.0704 -3.63328,-1.35253 -2.92732,-2.08444 -5.55956,-2.67922 -13.54698,-3.06111 -9.21607,-0.44062 -10.22266,-0.26403 -14.30426,2.50949 -4.79437,3.25786 -6.67002,3.56487 -10.13222,1.65846 z m -30.8521,-26.64578 c 1.21728,-0.92071 3.44064,-1.67402 4.9408,-1.67402 3.99916,0 2.50825,-2.77917 -1.71645,-3.19958 -2.60534,-0.25926 -3.97663,0.31957 -5.32807,2.24902 -3.08916,4.41039 -2.02033,5.74385 2.10372,2.62458 z"
     id="path3126"
     transform="scale(0.75)" />
  <path
     style="fill:#d37b5f;fill-opacity:1;fill-rule:evenodd;stroke:#000000;stroke-width:1.14018"
     d=""
     id="path3165"
     transform="scale(0.75)" />
  <path
     style="fill:#d37b5f;fill-opacity:1;fill-rule:evenodd;stroke:#000000;stroke-width:1.14018"
     d="m 381.48224,69.945692 c -2.14507,-0.934954 -7.53244,-2.047535 -11.97194,-2.472406 l -8.0718,-0.772491 6.69115,-0.570092 6.69116,-0.570092 7.9787,-17.943307 c 4.38828,-9.868818 8.36401,-17.70517 8.83494,-17.414116 0.47094,0.291053 2.0149,4.132606 3.43103,8.536783 1.41614,4.404177 2.81324,8.007595 3.10467,8.007595 0.29144,0 5.91239,-4.91843 12.49099,-10.929844 6.57861,-6.011415 12.14938,-10.74157 12.3795,-10.511455 0.23011,0.230115 -1.09397,6.741141 -2.9424,14.468947 -1.84844,7.727806 -3.36079,15.338174 -3.36079,16.91193 0,3.145589 -1.43658,3.083922 15.39249,0.660741 l 4.56074,-0.65669 -2.77563,3.021679 c -1.72618,1.879198 -3.06218,2.55804 -3.5335,1.795425 -0.53295,-0.862339 -3.34674,-0.737426 -9.48135,0.42091 -4.79792,0.905941 -8.71032,1.323993 -8.69422,0.929006 0.0161,-0.394986 1.0291,-5.079364 2.2511,-10.409726 2.49001,-10.861379 2.74889,-13.682215 1.25569,-13.682215 -0.56357,0 -4.87051,3.591581 -9.57097,7.981292 -4.70046,4.38971 -9.06267,7.981292 -9.69381,7.981292 -0.63113,0 -1.5833,-1.842672 -2.11592,-4.094827 -0.53262,-2.252155 -1.48149,-4.109539 -2.10859,-4.127519 -0.6271,-0.01798 -3.1125,4.736315 -5.5231,10.565103 l -4.38292,10.597797 2.67264,2.055754 c 3.19871,2.460397 1.8287,2.546524 -3.50786,0.220526 z"
     id="path3204"
     transform="scale(0.75)" />
  <path
     style="fill:#d37b5f;fill-opacity:1;fill-rule:evenodd;stroke:#000000;stroke-width:0.402169"
     d="m 384.27285,233.45211 c 0,-0.3417 -0.28214,-0.72954 -0.62698,-0.86187 -0.4214,-0.16171 0.27093,-0.67701 2.11139,-1.57152 7.02931,-3.41641 13.52492,-11.37832 16.94843,-20.77433 l 1.06613,-2.92607 0.20421,-20.08566 0.20421,-20.08568 3.90722,-2.64221 c 4.46711,-3.02085 6.68809,-5.05986 8.3798,-7.69325 1.39562,-2.17248 2.79657,-7.28844 2.78893,-10.18456 -0.009,-3.48732 0.83185,-13.53462 1.43862,-17.18606 0.72545,-4.36563 0.72386,-6.4541 -0.008,-11.00201 -0.3205,-1.99074 -1.04722,-6.96759 -1.61492,-11.05966 -2.24649,-16.193082 -2.56936,-17.27581 -6.24872,-20.955171 -3.92732,-3.927318 -8.89618,-6.462645 -14.117,-7.20309 -3.27426,-0.464374 -5.96578,-1.724894 -9.65278,-4.520695 -2.47225,-1.874673 -2.61415,-2.065238 -2.01085,-2.700573 0.60831,-0.640606 0.76285,-0.602367 2.45887,0.608394 2.89296,2.065245 5.9682,3.450781 9.85315,4.43929 1.99074,0.506535 4.97684,1.490086 6.63579,2.185668 1.65895,0.695583 3.30101,1.35356 3.64902,1.462172 0.42336,0.132126 3.82583,-2.929222 10.28169,-9.250868 7.27918,-7.127857 9.79061,-9.359431 10.22582,-9.086318 0.31729,0.199113 0.93884,0.25932 1.38123,0.133792 0.44238,-0.125528 -3.28512,3.814836 -8.28335,8.756365 -5.50193,5.439512 -9.2918,9.504767 -9.60498,10.302905 -0.50131,1.277596 -0.44762,1.420423 1.73863,4.624948 3.36921,4.938467 4.29214,7.778193 4.72038,14.524061 0.39369,6.20151 0.537,7.23049 1.57634,11.31856 1.05819,4.1622 1.30878,8.25235 0.82453,13.45818 -0.23662,2.54372 -0.53077,8.42545 -0.65366,13.07051 -0.12821,4.84573 -0.4823,9.81691 -0.83074,11.66291 -1.24522,6.59702 -4.16919,10.68693 -10.64441,14.8889 -2.15541,1.39872 -4.22018,3.00287 -4.58836,3.56479 -0.77135,1.17723 -0.70456,3.00588 0.37629,10.30142 1.49905,10.11843 0.69698,22.82467 -1.97467,31.28192 -3.51801,11.13649 -10.45909,19.88598 -18.40277,23.1974 -1.35681,0.5656 -1.50814,0.56634 -1.50814,0.007 z"
     id="path3243"
     transform="scale(0.75)" />
  <path
     style="fill:#d37b5f;fill-opacity:1;fill-rule:evenodd;stroke:#000000;stroke-width:0.402169"
     d="m 307.08912,94.429249 c -0.018,-0.59729 -0.3267,-1.250463 -0.68592,-1.451496 -0.56956,-0.318738 -0.58833,-0.565759 -0.14667,-1.930288 1.3528,-4.179512 3.48585,-6.83634 8.6421,-10.7642 1.76955,-1.34798 5.47956,-4.724643 8.24448,-7.503698 4.38316,-4.405577 5.465,-5.268205 8.44555,-6.734224 5.34737,-2.630164 8.87353,-3.431476 15.28244,-3.472906 5.00104,-0.03233 5.76237,0.0657 9.65207,1.24281 2.32253,0.702849 4.94668,1.453294 5.83145,1.667655 1.59635,0.386762 1.59867,0.390067 0.30163,0.431313 -0.71888,0.02286 -1.30705,0.222542 -1.30705,0.443735 0,0.61683 -1.19055,0.491055 -5.70529,-0.602733 -3.38536,-0.820173 -5.14592,-1.003715 -9.57715,-0.998441 -6.53212,0.0078 -10.19344,0.701915 -13.18576,2.499858 -2.84542,1.709679 -7.91495,6.028375 -9.00023,7.667231 -0.98103,1.481432 -4.58768,4.588741 -7.3859,6.363322 -2.62517,1.664834 -6.55083,5.474367 -7.44437,7.22416 -0.40491,0.79292 -1.00448,2.69317 -1.33239,4.222778 -0.32791,1.529609 -0.61096,2.292414 -0.62899,1.695124 z"
     id="path3282"
     transform="scale(0.75)" />
  <path
     style="fill:#d37b5f;fill-opacity:1;fill-rule:evenodd;stroke:#000000;stroke-width:0.402169"
     d="m 372.40886,147.21287 c -5.22796,-0.51327 -8.1183,-1.51656 -13.59183,-4.71797 -2.99708,-1.75296 -3.10355,-1.86466 -2.41302,-2.53151 0.6875,-0.66391 0.79003,-0.63878 2.12191,0.52019 1.77679,1.54613 6.26239,3.59276 9.73126,4.44006 1.47686,0.36073 4.84636,0.84353 7.48777,1.07289 2.64142,0.22935 5.59553,0.57278 6.5647,0.76318 l 1.76212,0.34616 -1.60868,0.0469 c -0.88477,0.0258 -2.78502,0.12096 -4.22278,0.21144 -1.43775,0.0905 -4.06191,0.0224 -5.83145,-0.15136 z"
     id="path3321"
     transform="scale(0.75)" />
  <path
     style="fill:#d37b5f;fill-opacity:1;fill-rule:evenodd;stroke:#000000;stroke-width:0.402169"
     d="m 281.29662,137.38225 c -0.93941,-3.47323 -1.95278,-8.70237 -1.97595,-10.19618 -0.008,-0.49768 0.34793,-1.26683 0.79031,-1.70922 l 0.80434,-0.80434 0.003,1.91031 c 0.004,2.68114 1.60585,9.02294 3.3777,13.37213 0.18365,0.45077 -0.0529,0.61372 -0.93602,0.64465 -1.14534,0.0401 -1.20897,-0.0591 -2.0632,-3.21735 z"
     id="path3360"
     transform="scale(0.75)" />
  <path
     style="fill:#d37b5f;fill-opacity:1;fill-rule:evenodd;stroke:#000000;stroke-width:0.402169"
     d=""
     id="path3399"
     transform="scale(0.75)" />
  <path
     style="fill:#d37b5f;fill-opacity:1;fill-rule:evenodd;stroke:#000000;stroke-width:0.402169"
     d=""
     id="path3438"
     transform="scale(0.75)" />
  <path
     style="fill:#d37b5f;fill-opacity:1;fill-rule:evenodd;stroke:#000000;stroke-width:0.230949"
     d="m 350.00285,151.52724 c -0.69862,-0.22672 -2.41342,-0.98812 -3.81066,-1.692 -2.9176,-1.46979 -5.19307,-2.23454 -8.73295,-2.93501 -3.00546,-0.59471 -4.17518,-1.03559 -4.77679,-1.80042 -1.0333,-1.31362 0.50827,-2.14799 4.28375,-2.31855 4.08334,-0.18448 7.44484,0.69651 10.39046,2.72315 1.57793,1.08564 3.92969,2.08237 5.26998,2.23354 2.06821,0.23327 2.91898,0.91617 2.91898,2.34303 0,0.48418 -0.21015,0.86432 -0.71057,1.2854 -0.60169,0.50629 -0.92903,0.596 -2.13628,0.58548 -0.78414,-0.007 -1.9973,-0.19791 -2.69592,-0.42462 z m 4.17226,-0.72583 c 0.61553,-0.32942 0.57422,-1.28738 -0.0729,-1.69102 -0.2858,-0.17826 -1.03927,-0.38974 -1.67438,-0.46994 -1.31501,-0.16607 -3.94363,-1.34538 -6.05463,-2.71636 -0.78961,-0.51281 -2.24458,-1.20253 -3.23328,-1.53271 -1.60627,-0.53641 -2.16641,-0.60167 -5.26186,-0.61305 -2.41921,-0.009 -3.62099,0.0768 -3.98387,0.28408 -1.19453,0.68231 -0.33189,1.12115 3.92573,1.99706 3.6347,0.74776 6.38953,1.69621 8.94665,3.08022 1.07802,0.58347 2.533,1.24425 3.23328,1.46841 1.43144,0.45819 3.50128,0.55403 4.17528,0.19331 z"
     id="path3594"
     transform="scale(0.75)" />
  <path
     style="fill:#d37b5f;fill-opacity:1;fill-rule:evenodd;stroke:#000000;stroke-width:0.230949"
     d=""
     id="path3633"
     transform="scale(0.75)" />
  <path
     style="fill:#d37b5f;fill-opacity:1;fill-rule:evenodd;stroke:#000000;stroke-width:0.230949"
     d="m 356.79555,181.87215 c 0.0997,-0.25404 0.23522,-0.84074 0.30115,-1.30377 0.1029,-0.72259 0.0467,-0.86511 -0.39677,-1.00586 -0.46474,-0.1475 -0.37475,-0.2537 0.89542,-1.05682 2.20985,-1.39726 4.8882,-2.8212 5.0334,-2.676 0.24756,0.24755 -1.19098,1.93162 -3.6042,4.21939 -1.32565,1.25673 -2.3287,2.0771 -2.229,1.82306 z"
     id="path3672"
     transform="scale(0.75)" />
  <path
     style="fill:#d37b5f;fill-opacity:1;fill-rule:evenodd;stroke:#000000;stroke-width:0.230949"
     d=""
     id="path3711"
     transform="scale(0.75)" />
  <path
     style="fill:#f3bc1f;fill-opacity:1;fill-rule:evenodd;stroke:#000000;stroke-width:0.230949"
     d="m 315.9379,171.79188 c -3.11399,-0.47009 -7.82158,-1.4497 -7.39036,-1.53789 1.02869,-0.21037 1.41956,-1.28923 0.68727,-1.89698 -0.63266,-0.52505 -0.20592,-0.47433 1.18256,0.14058 0.7499,0.3321 2.61058,1.04453 4.13484,1.58317 1.52426,0.53865 3.18709,1.19902 3.69518,1.4675 l 0.9238,0.48815 -0.9238,-0.0177 c -0.50809,-0.01 -1.54736,-0.11181 -2.30949,-0.22686 z"
     id="path3789"
     transform="scale(0.75)" />
  <path
     style="fill:#f3bc1f;fill-opacity:1;fill-rule:evenodd;stroke:#000000;stroke-width:0.230949"
     d=""
     id="path6901"
     transform="scale(0.75)" />
  <path
     style="fill:#f3bc1f;fill-opacity:1;fill-rule:evenodd;stroke:#000000;stroke-width:0.230949"
     d=""
     id="path6940"
     transform="scale(0.75)" />
  <path
     style="fill:#f3bc1f;fill-opacity:1;fill-rule:evenodd;stroke:#000000;stroke-width:0.230949"
     d=""
     id="path6979"
     transform="scale(0.75)" />
  <path
     style="fill:#f3bc1f;fill-opacity:1;fill-rule:evenodd;stroke:#000000;stroke-width:0.230949"
     d="m 350.47833,150.44135 c -1.26265,-0.33941 -2.43681,-0.92607 -4.95004,-2.47326 -1.82869,-1.12577 -3.73298,-1.72512 -6.74704,-2.12355 -2.74093,-0.36232 -4.94482,-0.93066 -4.94482,-1.27516 0,-0.40364 1.10388,-0.49893 4.77454,-0.41219 3.34771,0.0791 3.7793,0.1389 5.1321,0.71092 0.81235,0.34349 2.34383,1.25433 3.40328,2.02407 2.5868,1.87944 4.19124,2.59496 5.78664,2.58062 0.93318,-0.008 1.29148,0.0815 1.39441,0.3497 0.35934,0.93644 -1.53471,1.24097 -3.84907,0.61885 z"
     id="path7096"
     transform="scale(0.75)" />
  <path
     style="fill:#f3bc1f;fill-opacity:1;fill-rule:evenodd;stroke:#000000;stroke-width:0.175053"
     d="m 473.35681,296.53994 c -0.22651,-0.69721 -0.63504,-1.04764 -1.35567,-1.16287 -0.36888,-0.059 -0.67068,-0.12664 -0.67068,-0.15035 0,-0.0237 0.19948,-0.40002 0.44329,-0.83624 0.97684,-1.74776 1.22121,-4.98975 0.60429,-8.01702 -0.58315,-2.86159 -1.58838,-5.34591 -2.65437,-6.56 -0.47945,-0.54607 -0.64542,-0.62609 -1.19068,-0.57409 -0.6062,0.0578 -0.63357,0.0367 -0.63357,-0.48844 0,-0.53833 0.0136,-0.54728 0.70896,-0.46641 0.38993,0.0453 1.13052,0.28175 1.64575,0.52536 0.74546,0.35247 1.07167,0.65164 1.59729,1.46487 1.12886,1.74656 2.37115,5.52321 2.81475,8.55703 0.25843,1.76736 0.12191,3.24724 -0.4734,5.13172 -0.2486,0.78697 -0.50641,1.78708 -0.5729,2.22246 -0.10857,0.71095 -0.13538,0.74702 -0.26306,0.35398 z"
     id="path7135"
     transform="scale(0.75)" />
  <path
     style="fill:#f3bc1f;fill-opacity:1;fill-rule:evenodd;stroke:#000000;stroke-width:0.175053"
     d="m 451.49728,292.592 c -0.0585,-0.47631 -0.15144,-1.61437 -0.20643,-2.52902 -0.055,-0.91466 -0.14249,-2.13565 -0.19443,-2.71333 -0.0887,-0.98616 -0.0763,-1.03248 0.20248,-0.7583 0.46534,0.45765 0.83344,5.49761 0.47023,6.43828 -0.14803,0.38336 -0.1766,0.33736 -0.27185,-0.43763 z"
     id="path7174"
     transform="scale(0.75)" />
  <path
     style="fill:#f3bc1f;fill-opacity:1;fill-rule:evenodd;stroke:#000000;stroke-width:0.175053"
     d="m 461.24229,296.2744 c 0.70385,-0.49448 2.32255,-1.1356 2.86285,-1.13391 0.4047,10e-4 1.67637,0.35473 1.58935,0.44175 -0.0369,0.0369 -1.00927,0.27445 -2.16082,0.52787 -3.27315,0.72033 -3.06125,0.70514 -2.29138,0.16429 z"
     id="path7213"
     transform="scale(0.75)" />
  <path
     style="fill:#f3bc1f;fill-opacity:1;fill-rule:evenodd;stroke:#000000;stroke-width:0.175053"
     d="m 463.80317,284.46128 -0.96279,-0.50864 0.71097,-0.008 c 0.4648,-0.005 0.84361,-0.13184 1.09408,-0.36519 l 0.38311,-0.35692 0.002,0.48821 c 0.001,0.26852 0.0499,0.66546 0.10795,0.88209 0.14134,0.52741 -0.1415,0.49961 -1.33571,-0.13129 z"
     id="path7252"
     transform="scale(0.75)" />
  <path
     style="fill:#f3bc1f;fill-opacity:1;fill-rule:evenodd;stroke:#000000;stroke-width:0.175053"
     d="m 463.89607,404.76652 c 0.48976,-1.1792 5.23312,-10.17666 7.91351,-15.01081 7.33234,-13.22403 11.83611,-23.25219 13.33179,-29.68476 0.90765,-3.90357 1.23423,-9.03237 1.23644,-19.41763 0.003,-13.09661 -0.44098,-17.2956 -2.45124,-23.19453 -1.953,-5.73088 -4.44233,-10.31597 -9.07629,-16.71757 -0.87117,-1.20349 -1.84228,-2.63881 -2.15802,-3.18959 -0.47516,-0.82889 -0.67639,-1.02155 -1.16796,-1.11825 -1.48209,-0.29154 -7.2726,0.47965 -10.09021,1.34384 -0.67073,0.20572 -2.08009,0.72745 -3.13193,1.1594 -3.17021,1.3019 -4.72286,1.46533 -5.86389,0.61722 -1.01528,-0.75464 -1.74369,-3.11899 -2.08804,-6.77754 l -0.13182,-1.40042 -0.27552,0.62577 c -0.55757,1.26639 -1.97652,2.05255 -5.48308,3.03789 -4.19261,1.17811 -10.91835,2.46143 -11.91761,2.27396 -0.95605,-0.17935 -1.36592,-0.78731 -1.44191,-2.13875 -0.11597,-2.0624 0.86971,-4.29209 2.69614,-6.09889 1.87817,-1.85799 3.84958,-2.28735 9.0879,-1.97925 4.79576,0.28207 6.08971,0.64387 6.75137,1.88775 0.17097,0.32141 0.33672,0.61027 0.36833,0.6419 0.0316,0.0316 0.0295,-1.78824 -0.005,-4.04417 -0.071,-4.67902 -0.0586,-4.72972 1.28095,-5.24131 0.65456,-0.24998 1.16009,-0.28714 2.85188,-0.20962 2.38983,0.10949 4.1963,0.57919 6.84023,1.77853 0.93116,0.42239 1.93578,0.81816 2.23248,0.87949 0.50972,0.10535 0.57518,0.0536 1.18782,-0.93896 0.35661,-0.57775 1.03945,-1.47835 1.51743,-2.00133 0.47797,-0.52298 0.86904,-0.99249 0.86904,-1.04335 0,-0.0509 -0.53172,-0.26374 -1.18161,-0.47306 -0.69401,-0.22354 -1.35288,-0.56869 -1.59667,-0.83641 -0.36259,-0.3982 -0.4036,-0.57872 -0.32441,-1.42798 0.0498,-0.53468 0.53713,-2.23253 1.08282,-3.773 2.93465,-8.2843 4.24278,-8.87757 8.29861,-3.76364 2.96132,3.73386 5.56388,6.26767 8.24394,8.02616 1.91449,1.25617 3.34338,1.77703 4.87242,1.77609 1.36207,-8.8e-4 4.77489,-0.67462 9.16714,-1.80985 4.87945,-1.26115 7.16097,-2.29429 7.42953,-3.3643 0.22913,-0.91294 -0.39664,-3.66532 -2.21943,-9.76181 -0.58072,-1.94228 -1.18053,-4.26914 -1.33292,-5.17079 -0.35999,-2.12995 -0.18832,-3.38663 1.06837,-7.821 2.72061,-9.60001 2.03565,-12.12762 -5.6562,-20.87232 -3.17027,-3.6042 -4.75683,-5.71758 -5.67204,-7.55541 -0.68978,-1.38515 -0.73445,-1.56485 -0.71799,-2.88837 0.026,-2.09412 1.24366,-6.69529 4.45528,-16.83567 1.57759,-4.98113 3.31702,-10.67105 3.31702,-10.85046 0,-0.24256 -1.67762,0.0172 -3.50111,0.54201 -6.55258,1.88603 -12.63065,4.99253 -17.091,8.73519 -3.97171,3.33264 -6.49984,6.50249 -9.41716,11.80751 -1.14855,2.0886 -2.44033,3.65658 -3.42587,4.15838 -0.52239,0.26597 -1.46586,0.48858 -2.80085,0.66084 -5.99703,0.77382 -13.8484,4.44493 -17.35145,8.11309 -2.17948,2.28222 -4.04585,5.33252 -4.59056,7.50256 -0.88191,3.51337 -1.96793,13.34437 -3.17943,28.78108 -1.6505,21.0305 -3.29803,30.16944 -6.60595,36.64362 -0.97885,1.91578 -1.49992,2.62733 -4.05739,5.5406 -8.96491,10.21213 -37.55971,39.21573 -43.22241,43.84034 -1.45371,1.18721 -1.89739,1.24718 -2.37006,0.32037 -0.65122,-1.27691 -1.82964,-5.66771 -2.38431,-8.88394 -0.85555,-4.96083 -1.21205,-12.88167 -1.08334,-24.0698 0.12369,-10.75237 0.42498,-16.56956 1.4325,-27.65839 0.23182,-2.5514 0.52034,-5.97806 0.64115,-7.61481 0.297,-4.02377 0.29884,-15.41319 0.003,-18.55563 -0.62338,-6.6215 -1.90247,-13.20979 -3.82245,-19.68854 -1.22162,-4.12223 -1.28023,-4.41142 -1.01967,-5.03111 0.29204,-0.69457 0.92719,-0.9058 3.32232,-1.10487 2.56092,-0.21285 6.87186,-1.32227 6.51698,-1.67714 -0.0557,-0.0557 -2.30254,-0.005 -4.99299,0.11356 -6.68238,0.29347 -9.96381,0.17528 -12.02718,-0.43317 -2.80268,-0.82648 -7.47886,-3.25677 -10.18438,-5.293 -2.80987,-2.11477 -5.59141,-5.48968 -6.86322,-8.32733 -2.28095,-5.08919 -2.89347,-12.47321 -1.5701,-18.92793 0.83797,-4.0872 2.83092,-8.77927 5.63846,-13.27486 0.12572,-0.20132 0.40791,-0.31554 0.77955,-0.31554 h 0.5825 l -0.33945,0.4814 c -0.70031,0.99316 -2.68691,4.63949 -3.38182,6.2072 -1.94172,4.38047 -2.9749,8.81666 -2.92688,12.56724 l 0.0213,1.66301 0.13834,-1.66818 c 0.4505,-5.4325 2.71221,-12.02501 6.03696,-17.5967 0.88436,-1.48204 1.03977,-1.65397 1.49508,-1.65397 0.27947,0 0.50813,0.0432 0.50813,0.0959 0,0.0528 -0.28293,0.53823 -0.62874,1.07881 -5.5197,8.62868 -7.78405,18.82711 -5.85491,26.36998 1.23453,4.82696 4.92391,9.62709 10.06291,13.09251 4.50176,3.03571 7.91912,3.90252 15.414,3.90973 3.76963,0.004 4.39012,-0.0379 6.03933,-0.40467 6.46786,-1.4382 11.54646,-5.15149 15.84105,-11.58242 2.24023,-3.35464 4.45239,-7.66813 5.43737,-10.60235 0.93976,-2.79949 1.29237,-7.25028 1.29925,-16.39959 l 0.004,-5.55794 h 0.54828 0.54828 l -0.12,6.87083 c -0.22096,12.65109 -0.49996,14.22375 -3.63708,20.50099 -2.37926,4.7608 -4.6064,7.95666 -7.64519,10.97056 -3.73928,3.70865 -7.49591,5.75969 -12.45119,6.79808 l -1.66301,0.34849 2.69954,0.0124 c 2.27969,0.0105 2.7505,0.0585 3.0272,0.30895 0.30958,0.28017 0.32078,0.27859 0.20285,-0.0287 -0.0865,-0.2255 -0.062,-0.28643 0.08,-0.19867 0.11264,0.0696 0.2048,0.27947 0.2048,0.46635 0,0.41427 0.29833,0.42769 1.22909,0.0553 0.39106,-0.15647 0.75269,-0.24282 0.80362,-0.19189 0.18809,0.18809 -1.76504,0.79228 -2.05809,0.63666 -0.19629,-0.10424 -0.36125,-0.0646 -0.51816,0.12444 -0.79436,0.95716 -6.3808,2.51613 -9.01631,2.51613 -1.11708,0 -1.8186,0.24243 -1.8186,0.62847 0,0.15787 0.39143,1.59744 0.86985,3.19905 3.53041,11.81877 4.83102,21.93469 4.38185,34.08127 -0.18563,5.01967 -0.2832,6.45611 -0.96248,14.16951 -1.06203,12.05955 -1.36906,18.72509 -1.37074,29.75902 -0.002,13.80785 0.55694,19.86799 2.45047,26.56379 0.34706,1.22727 0.7239,2.35842 0.83741,2.51366 0.18184,0.24867 0.32996,0.17914 1.24505,-0.58448 6.88477,-5.74518 39.3431,-38.94484 44.97646,-46.00371 4.14049,-5.18821 6.3774,-15.16301 8.04643,-35.88045 1.49709,-18.58332 2.35491,-26.83963 3.24493,-31.23171 0.74949,-3.69863 3.78505,-8.29128 7.16218,-10.83602 2.64682,-1.99444 6.6051,-3.96177 10.7546,-5.34523 2.03986,-0.68009 5.12024,-1.33933 6.25822,-1.33933 1.56759,0 2.85202,-1.33409 4.80331,-4.98901 3.64519,-6.82778 9.63557,-12.66369 16.68602,-16.25579 3.80641,-1.9393 10.57702,-4.37044 12.82621,-4.60553 1.08195,-0.11308 1.90287,0.20242 1.90287,0.73132 0,0.3237 -1.8298,6.37617 -3.65993,12.10607 -2.72026,8.51675 -4.22776,14.15953 -4.2715,15.98884 -0.0245,1.02614 0.0453,1.27533 0.71181,2.53827 0.89633,1.69853 2.42633,3.75866 4.61682,6.2165 6.62526,7.43388 8.20756,10.28635 8.2022,14.78636 -0.003,2.28789 -0.30174,3.86393 -1.60155,8.44136 -0.91597,3.22573 -0.93401,3.33392 -0.91369,5.47888 0.0179,1.88812 0.0927,2.42819 0.5457,3.93869 2.48908,8.29997 3.34345,11.73476 3.13022,12.58431 -0.19909,0.79326 -1.30631,1.83154 -2.62808,2.46445 -3.19916,1.53188 -13.60778,3.9654 -15.76385,3.68557 -1.91272,-0.24825 -4.27453,-1.46119 -6.65303,-3.41674 -1.57735,-1.29687 -4.46202,-4.2617 -5.79131,-5.95225 -3.41112,-4.33816 -4.14744,-4.59582 -5.50277,-1.92558 -0.59919,1.18051 -2.50719,6.39751 -2.80231,7.66228 -0.27078,1.16049 -0.16736,1.29917 1.34399,1.80211 1.16747,0.38851 1.80341,0.84209 1.80341,1.28625 0,0.13611 -0.31614,0.62845 -0.70254,1.09409 -1.35453,1.63231 -2.27336,2.90042 -2.27336,3.13753 0,0.13161 -0.19848,0.36933 -0.44106,0.52828 -0.65534,0.4294 -1.68488,0.24096 -3.68778,-0.67497 -2.22668,-1.01826 -3.73335,-1.4765 -5.67222,-1.72516 -1.91469,-0.24554 -3.39472,-0.0897 -3.89454,0.41013 -0.35178,0.35179 -0.3593,0.47463 -0.24813,4.05559 0.18357,5.91285 0.55698,9.56092 1.18764,11.60277 0.35041,1.1345 0.76865,1.73197 0.49936,0.71335 -0.083,-0.31397 -0.27846,-2.73714 -0.43434,-5.38482 -0.15588,-2.64768 -0.4,-5.71481 -0.54248,-6.81586 -0.14248,-1.10105 -0.21274,-2.20388 -0.15614,-2.45075 0.423,-1.84486 3.05006,-2.3709 6.32989,-1.26749 0.88293,0.29704 2.88041,1.17856 4.43884,1.95892 1.55844,0.78037 2.87574,1.37663 2.92734,1.32502 0.0516,-0.0516 0.20513,-0.73831 0.34116,-1.52603 0.3704,-2.14479 1.01588,-3.20459 2.07252,-3.40281 1.68975,-0.317 3.63395,2.36115 4.3756,6.02745 0.21949,1.08501 0.27739,2.0579 0.22399,3.76364 -0.0646,2.06213 -0.12305,2.41274 -0.56464,3.38521 -0.27093,0.59665 -0.6394,1.21768 -0.81883,1.38006 -0.44551,0.40318 -0.26832,0.59854 0.54288,0.59854 1.01956,0 1.44384,0.27512 1.97263,1.27912 0.26333,0.49997 1.22343,1.93311 2.13354,3.18474 3.84574,5.28881 5.83629,8.63281 7.78777,13.08298 1.91413,4.36501 3.1368,8.66938 3.69268,12.99993 0.12453,0.97011 0.23563,5.84664 0.28915,12.69135 0.12764,16.32666 -0.0916,18.72179 -2.3479,25.64528 -1.98831,6.10126 -6.05454,14.69458 -12.21777,25.82033 -2.61887,4.72753 -6.05732,11.19669 -7.37369,13.87295 -0.5948,1.20927 -0.72043,1.35667 -1.15642,1.35667 h -0.48912 z m -4.99438,-107.09584 c 1.56747,-0.65116 3.61975,-1.23343 5.64546,-1.60172 0.93872,-0.17067 1.70677,-0.36864 1.70677,-0.43994 0,-0.26719 -1.9355,-0.69366 -2.62188,-0.57769 -0.84862,0.14337 -2.55811,0.96453 -4.73035,2.27222 -1.76972,1.06538 -1.76972,1.08229 0,0.34713 z m -2.93862,0.0818 c 0.50903,-0.19962 1.88556,-0.91538 3.05896,-1.59057 3.95576,-2.27619 4.83327,-2.45595 7.48111,-1.53251 1.65043,0.57558 2.36093,0.5828 3.20076,0.0325 0.56713,-0.3716 1.2024,-1.66852 1.43584,-2.93134 0.78407,-4.24143 -1.16861,-10.42024 -3.29308,-10.42024 -0.49822,0 -0.60188,0.0899 -0.912,0.79098 -0.19244,0.43504 -0.47973,1.68447 -0.63842,2.77652 l -0.28853,1.98555 -3.85936,-1.90197 c -4.06931,-2.00544 -5.81265,-2.60131 -7.60723,-2.6001 -0.67997,5.2e-4 -1.15958,0.11101 -1.57182,0.36233 l -0.59326,0.36168 0.10277,1.25691 c 0.0565,0.6913 0.1855,2.08403 0.28661,3.09496 0.10111,1.01093 0.30227,3.75607 0.44704,6.10032 0.14476,2.34424 0.3071,4.33328 0.36075,4.42009 0.17167,0.27776 1.43503,0.16932 2.38986,-0.20513 z m -19.69865,-1.83231 c 5.06679,-0.93168 10.28828,-2.34161 11.73699,-3.16927 0.90983,-0.51979 1.09803,-0.852 1.09472,-1.93242 -0.007,-2.17899 -1.04258,-2.57343 -7.33289,-2.79216 -4.43984,-0.15439 -5.79087,0.17295 -7.41429,1.79637 -0.4455,0.44549 -1.1043,1.37006 -1.46401,2.0546 -0.5489,1.04455 -0.66659,1.46167 -0.7322,2.59501 -0.043,0.74272 -0.0314,1.4724 0.0259,1.62151 0.15127,0.3942 1.25215,0.34741 4.08582,-0.17364 z m -64.53917,-62.95072 c -0.62582,-0.0839 -2.33083,-0.30791 -3.78893,-0.4978 -4.00843,-0.52203 -6.23323,-1.33078 -9.51511,-3.45888 -4.94433,-3.20609 -8.87003,-7.88376 -10.44127,-12.44128 -0.72446,-2.10137 -0.77223,-1.74439 -0.0671,0.50133 1.28209,4.08313 3.83386,7.61967 7.4342,10.30317 1.91311,1.42592 3.06096,2.11854 5.66744,3.41977 3.67539,1.83486 5.77047,2.33069 9.83548,2.32772 1.90099,-0.001 1.94974,-0.01 0.87527,-0.15403 z m -24.38786,-18.56221 c -0.0559,-0.13965 -0.0974,-0.0982 -0.10576,0.10576 -0.008,0.18453 0.0338,0.28793 0.0919,0.22976 0.0582,-0.0582 0.0644,-0.20916 0.0138,-0.33552 z m -0.17505,-0.87527 c -0.0559,-0.13964 -0.0974,-0.0982 -0.10576,0.10576 -0.008,0.18454 0.0338,0.28793 0.0919,0.22976 0.0582,-0.0582 0.0644,-0.20915 0.0138,-0.33552 z m -0.1787,-1.23631 c -0.0486,-0.12035 -0.0883,-0.0219 -0.0883,0.21882 0,0.24069 0.0397,0.33916 0.0883,0.21881 0.0486,-0.12035 0.0486,-0.31728 0,-0.43763 z m -0.16745,-2.10064 c -0.0417,-0.21663 -0.0759,-0.0394 -0.0759,0.39387 0,0.43326 0.0341,0.6105 0.0759,0.39387 0.0417,-0.21663 0.0417,-0.57111 0,-0.78774 z"
     id="path7291"
     transform="scale(0.75)" />
  <path
     style="fill:#d37b5f;fill-opacity:1;fill-rule:evenodd;stroke:#000000;stroke-width:0.142166"
     d="m 432.3494,296.03625 c -0.23198,-0.23198 -0.0681,-1.69069 0.32849,-2.92455 0.48136,-1.49746 1.06289,-2.43598 2.12141,-3.42373 1.44394,-1.34739 2.62023,-1.5982 6.90934,-1.47322 3.71157,0.10815 5.18361,0.28627 6.12543,0.7412 0.85479,0.4129 1.05393,0.77002 1.05393,1.89 0,1.02581 -0.21061,1.33353 -1.28334,1.87504 -2.77998,1.40333 -14.59875,3.97177 -15.25526,3.31526 z"
     id="path14796"
     transform="scale(0.75)" />
  <path
     style="fill:#d37b5f;fill-opacity:1;fill-rule:evenodd;stroke:#000000;stroke-width:0.0937722"
     d="m 471.73427,284.78605 c -0.6065,-2.05761 -1.77043,-3.82485 -2.87506,-4.36529 -0.50915,-0.24911 -1.20055,-0.32195 -1.66291,-0.17521 -0.18558,0.0589 -0.17866,0.034 0.0734,-0.26415 0.56732,-0.67108 1.46661,-0.84513 2.00891,-0.38882 0.44292,0.3727 1.09097,1.33312 1.5067,2.23296 0.44261,0.95801 1.14458,3.01436 1.10277,3.23041 -0.0162,0.0836 -0.0854,-0.0378 -0.15381,-0.2699 z"
     id="path14909"
     transform="scale(0.75)" />
  <path
     style="fill:#d37b5f;fill-opacity:1;fill-rule:evenodd;stroke:#000000;stroke-width:0.0937722"
     d="m 451.27852,286.34618 c -0.23442,-0.28651 -0.23443,-0.2866 -0.23443,-2.36908 0,-2.03695 0.005,-2.08753 0.21319,-2.30965 0.31807,-0.33881 0.79063,-0.45407 2.03734,-0.49692 l 1.12527,-0.0387 -0.65641,0.12716 c -0.84023,0.16278 -1.24103,0.33409 -1.6768,0.7167 -0.76518,0.67184 -0.90596,1.34721 -0.67091,3.21874 0.0882,0.70252 0.14619,1.31351 0.1288,1.35777 -0.0174,0.0442 -0.13711,-0.0485 -0.26605,-0.20605 z"
     id="path14948"
     transform="scale(0.75)" />
  <path
     style="fill:#d37b5f;fill-opacity:1;fill-rule:evenodd;stroke:#000000;stroke-width:0.0937722"
     d="m 452.04639,296.44122 c -0.37371,-1.51797 -0.44517,-2.33282 -0.26028,-2.96788 0.0879,-0.3021 0.18361,-0.52557 0.21258,-0.49661 0.0601,0.0601 0.32864,3.97279 0.28735,4.18724 -0.0149,0.0774 -0.12273,-0.24787 -0.23965,-0.72275 z"
     id="path14987"
     transform="scale(0.75)" />
  <path
     style="fill:#d37b5f;fill-opacity:1;fill-rule:evenodd;stroke:#000000;stroke-width:0.0937722"
     d="m 471.00912,294.89842 c 0.44164,-0.51528 0.82799,-1.32324 1.09138,-2.28239 0.26005,-0.94693 0.36316,-3.85797 0.18639,-5.26227 -0.062,-0.49254 -0.0928,-0.91543 -0.0685,-0.93976 0.12702,-0.12701 0.29944,1.80106 0.29888,3.34197 -8.8e-4,2.38017 -0.25329,3.53492 -1.06761,4.88424 -0.2487,0.41209 -0.43009,0.61147 -0.57616,0.6333 -0.19427,0.029 -0.18224,-0.004 0.13561,-0.37509 z"
     id="path15026"
     transform="scale(0.75)" />
  <path
     style="fill:#d37b5f;fill-opacity:1;fill-rule:evenodd;stroke:#000000;stroke-width:0.0937722"
     d="m 465.16315,283.78788 c -0.007,-0.51632 0.30454,-1.67048 0.47983,-1.77881 0.0737,-0.0455 0.0858,0.003 0.0397,0.16014 -0.0365,0.12411 -0.13301,0.56323 -0.21454,0.97583 -0.20765,1.05083 -0.29714,1.23944 -0.30498,0.64284 z"
     id="path15065"
     transform="scale(0.75)" />
  <path
     style="fill:#d37b5f;fill-opacity:1;fill-rule:evenodd;stroke:#000000;stroke-width:0.0408508"
     d="m 472.09263,286.33168 c 0,-0.0404 -0.0614,-0.32397 -0.13657,-0.6301 -0.12853,-0.52383 -0.13217,-0.55775 -0.0618,-0.57615 0.0844,-0.0221 0.0923,4e-4 0.25681,0.72808 0.073,0.32312 0.0888,0.46068 0.057,0.4989 -0.0622,0.0749 -0.1155,0.0653 -0.1155,-0.0207 z"
     id="path15143"
     transform="scale(0.75)" />
  <path
     style="fill:#d37b5f;fill-opacity:1;fill-rule:evenodd;stroke:#000000;stroke-width:0.0408508"
     d="m 459.79138,296.95956 c 0.47604,-0.2839 0.87401,-0.5077 0.88439,-0.49732 0.0104,0.0104 -0.19171,0.17372 -0.44908,0.363 -0.32846,0.24156 -0.58015,0.38979 -0.84441,0.49732 -0.20705,0.0843 -0.39446,0.1532 -0.41645,0.1532 -0.022,0 0.34951,-0.23229 0.82555,-0.5162 z"
     id="path15182"
     transform="scale(0.75)" />
  <path
     style="fill:#d37b5f;fill-opacity:1;fill-rule:evenodd;stroke:#000000;stroke-width:0.0408508"
     d=""
     id="path15221"
     transform="scale(0.75)" />
  <path
     style="fill:#d37b5f;fill-opacity:1;fill-rule:evenodd;stroke:#000000;stroke-width:0.0408508"
     d="m 459.96744,297.08698 c 0.0116,-0.0116 0.16555,-0.12929 0.34207,-0.26149 0.31109,-0.23298 0.3223,-0.23767 0.36451,-0.1525 0.0263,0.053 0.0907,0.0933 0.16242,0.10152 0.09,0.0103 6.2e-4,0.0524 -0.3686,0.17322 -0.50847,0.16643 -0.53495,0.1738 -0.5004,0.13925 z"
     id="path15260"
     transform="scale(0.75)" />
  <path
     style="fill:#d37b5f;fill-opacity:1;fill-rule:evenodd;stroke:#000000;stroke-width:0.0408508"
     d=""
     id="path15299"
     transform="scale(0.75)" />
  <path
     style="fill:#d37b5f;fill-opacity:1;fill-rule:evenodd;stroke:#000000;stroke-width:0.0408508"
     d="m 452.32616,297.51827 c -0.0286,-0.0955 -0.0618,-0.19923 -0.0739,-0.2306 -0.0129,-0.0336 0.004,-0.057 0.0413,-0.057 0.0434,0 0.0717,0.0567 0.0903,0.18128 0.0379,0.25294 0.005,0.31434 -0.0577,0.10634 z"
     id="path15338"
     transform="scale(0.75)" />
  <path
     style="fill:#d37b5f;fill-opacity:1;fill-rule:evenodd;stroke:#000000;stroke-width:0.0408508"
     d=""
     id="path15377"
     transform="scale(0.75)" />
  <path
     style="fill:#d37b5f;fill-opacity:1;fill-rule:evenodd;stroke:#000000;stroke-width:0.0408508"
     d="m 451.54467,293.79263 c 0,-0.0575 -0.0113,-0.18701 -0.0251,-0.28774 l -0.0251,-0.18314 0.12303,0.0181 0.12304,0.0181 -0.0634,0.23087 c -0.073,0.2658 -0.13248,0.3574 -0.13248,0.2039 z"
     id="path15416"
     transform="scale(0.75)" />
  <path
     style="fill:#d37b5f;fill-opacity:1;fill-rule:evenodd;stroke:#000000;stroke-width:0.0408508"
     d=""
     id="path15455"
     transform="scale(0.75)" />
  <path
     style="fill:#d37b5f;fill-opacity:1;fill-rule:evenodd;stroke:#000000;stroke-width:0.0408508"
     d="m 462.12503,283.7075 c -0.34825,-0.17654 -0.6148,-0.32186 -0.59234,-0.32294 0.0225,-0.001 0.18113,0.0526 0.35257,0.11929 0.17144,0.0667 0.45891,0.16375 0.63883,0.21569 l 0.32711,0.0944 -0.0465,0.10725 -0.0465,0.10724 z"
     id="path15494"
     transform="scale(0.75)" />
  <path
     style="fill:#d37b5f;fill-opacity:1;fill-rule:evenodd;stroke:#000000;stroke-width:0.0269507"
     d=""
     id="path15533"
     transform="scale(0.75)" />
  <path
     style="fill:#d37b5f;fill-opacity:1;fill-rule:evenodd;stroke:#000000;stroke-width:0.0269507"
     d=""
     id="path15572"
     transform="scale(0.75)" />
  <path
     style="fill:#d37b5f;fill-opacity:1;fill-rule:evenodd;stroke:#000000;stroke-width:0.0269507"
     d="m 460.03859,282.69628 c -0.55792,-0.25248 -1.12238,-0.47601 -1.76901,-0.70051 -0.31128,-0.10807 -0.54598,-0.19713 -0.52155,-0.19791 0.16656,-0.005 2.49414,0.89501 2.68207,1.03744 0.0935,0.0708 -0.005,0.0358 -0.39151,-0.13902 z"
     id="path15611"
     transform="scale(0.75)" />
  <path
     style="fill:#d37b5f;fill-opacity:1;fill-rule:evenodd;stroke:#000000;stroke-width:0.0269507"
     d="m 464.91294,283.16646 c 5e-5,-0.0312 0.12355,-0.3244 0.2004,-0.47576 0.0861,-0.16947 0.2847,-0.47056 0.2847,-0.4315 0,0.01 -0.0426,0.14521 -0.0947,0.30082 -0.0521,0.15562 -0.1115,0.35977 -0.13205,0.45366 -0.0286,0.13052 -0.038,0.14956 -0.0401,0.0809 l -0.003,-0.0899 -0.10781,0.0854 c -0.0593,0.047 -0.10779,0.0813 -0.10779,0.0764 z"
     id="path15689"
     transform="scale(0.75)" />
  <path
     style="fill:#d37b5f;fill-opacity:1;fill-rule:evenodd;stroke:#000000;stroke-width:0.0269507"
     d=""
     id="path15728"
     transform="scale(0.75)" />
  <path
     style="fill:#ffb380;fill-opacity:1;fill-rule:evenodd;stroke:#000000;stroke-width:0.0269507"
     d=""
     id="path15767"
     transform="scale(0.75)" />
  <path
     style="fill:#ffb380;fill-opacity:1;fill-rule:evenodd;stroke:#000000;stroke-width:0.230949"
     d="m 397.7407,445.54915 c -0.84254,-0.87942 -1.60609,-2.85547 -2.57251,-6.65755 -0.98094,-3.85927 -1.41244,-5.2605 -2.55213,-8.28764 -1.95336,-5.18837 -4.19417,-9.56338 -5.87798,-11.47628 -0.50627,-0.57516 -0.96784,-1.38011 -1.05365,-1.83751 -0.0891,-0.47467 0.0932,-2.58669 0.43723,-5.06658 0.57494,-4.14445 0.90918,-7.86067 1.17182,-13.02866 0.071,-1.39724 0.24798,-4.10674 0.39327,-6.02111 l 0.26415,-3.48069 2.331,0.30774 c 16.69541,2.20414 26.12454,13.01595 26.85044,30.78777 0.2405,5.88803 -0.49479,10.24913 -2.37034,14.05876 -0.89034,1.80848 -1.41354,2.51459 -3.17783,4.28883 -2.86385,2.88 -6.2531,5.09177 -9.91181,6.46829 -2.09919,0.78977 -3.13595,0.77517 -3.93166,-0.0554 z"
     id="path15917"
     transform="scale(0.75)" />
  <path
     style="fill:#ffb380;fill-opacity:1;fill-rule:evenodd;stroke:#000000;stroke-width:0.230949"
     d="m 384.31258,418.50154 c -0.28111,-0.45484 -0.56386,-9.81113 -0.35219,-11.65395 0.1187,-1.03341 0.2519,-2.29465 0.296,-2.80273 0.0441,-0.50809 0.0976,1.38858 0.119,4.21481 l 0.0388,5.13861 h 0.65462 0.65463 l -0.20518,1.44343 c -0.11285,0.79389 -0.14639,1.83316 -0.0745,2.30949 0.0723,0.47943 0.0337,0.86606 -0.0865,0.86606 -0.11945,0 -0.37387,0.15668 -0.56537,0.34819 -0.19151,0.19151 -0.40719,0.25275 -0.47928,0.13609 z"
     id="path15956"
     transform="scale(0.75)" />
  <path
     style="fill:#ffb380;fill-opacity:1;fill-rule:evenodd;stroke:#000000;stroke-width:0.230949"
     d="m 383.75089,399.07946 c -0.0176,-3.74715 -0.0723,-7.8003 -0.1217,-9.007 -0.0789,-1.92886 -0.0677,-2.0126 0.0931,-0.69285 0.31205,2.56168 0.50282,12.71312 0.27559,14.66525 -0.1735,1.49061 -0.22122,0.53124 -0.24697,-4.9654 z"
     id="path15995"
     transform="scale(0.75)" />
  <path
     style="fill:#ffb380;fill-opacity:1;fill-rule:evenodd;stroke:#000000;stroke-width:0.461898"
     d="m 432.56703,294.97253 c 0,-1.47033 1.26559,-3.79391 2.74402,-5.03793 1.4103,-1.18669 1.72918,-1.24865 6.42659,-1.24865 3.72593,0 5.19537,0.17701 5.96923,0.71904 2.34691,1.64384 0.66428,3.05521 -5.57729,4.67817 -2.3379,0.60792 -5.44589,1.23075 -6.90664,1.38408 -2.28692,0.24004 -2.65591,0.17131 -2.65591,-0.49471 z"
     id="path16034"
     transform="scale(0.75)" />
  <path
     style="fill:#ffb380;fill-opacity:1;fill-rule:evenodd;stroke:#000000;stroke-width:0.461898"
     d=""
     id="path16073"
     transform="scale(0.75)" />
  <path
     style="fill:#ffb380;fill-opacity:1;fill-rule:evenodd;stroke:#000000;stroke-width:0.461898"
     d=""
     id="path16112"
     transform="scale(0.75)" />
  <path
     style="fill:#ffb380;fill-opacity:1;fill-rule:evenodd;stroke:#000000;stroke-width:0.215481"
     d="m 281.09504,112.5112 c 0,-0.86295 1.5712,-3.15529 2.65293,-3.87054 0.76331,-0.50471 1.07793,-0.57464 2.51389,-0.55879 1.28553,0.0142 1.90779,0.14008 2.87013,0.58065 1.13654,0.52033 1.59855,1.01208 0.95939,1.02117 -0.14815,0.002 -1.1136,0.0927 -2.14546,0.20126 -2.14712,0.22595 -3.32421,0.6845 -4.67832,1.82247 -0.52355,0.43999 -1.22656,0.94201 -1.56224,1.11559 -0.60263,0.31164 -0.61032,0.30771 -0.61032,-0.31181 z"
     id="path16151"
     transform="scale(0.75)" />
  <path
     style="fill:#ffb380;fill-opacity:1;fill-rule:evenodd;stroke:#000000;stroke-width:0.151944"
     d="m 301.77014,170.40639 c -0.66657,-0.81346 -0.88013,-1.68589 -0.45282,-1.84987 0.29475,-0.1131 2.49746,0.41425 3.30745,0.79184 l 0.47924,0.2234 -0.65523,-0.0803 c -0.96886,-0.11871 -1.82697,0.15415 -1.94338,0.61797 -0.052,0.20726 -0.0591,0.5125 -0.0158,0.6783 0.12605,0.48202 -0.11806,0.35264 -0.71951,-0.38136 z"
     id="path16265"
     transform="scale(0.75)" />
  <path
     style="fill:#ffb380;fill-opacity:1;fill-rule:evenodd;stroke:#000000;stroke-width:0.151944"
     d=""
     id="path16304"
     transform="scale(0.75)" />
  <path
     style="fill:#ffb380;fill-opacity:1;fill-rule:evenodd;stroke:#000000;stroke-width:0.151944"
     d=""
     id="path16343"
     transform="scale(0.75)" />
  <path
     style="fill:#ffb380;fill-opacity:1;fill-rule:evenodd;stroke:#000000;stroke-width:0.151944"
     d=""
     id="path16382"
     transform="scale(0.75)" />
  <path
     style="fill:#ffb380;fill-opacity:1;fill-rule:evenodd;stroke:#000000;stroke-width:0.151944"
     d=""
     id="path16421"
     transform="scale(0.75)" />
</svg>
